<svg width="17" height="13" viewBox="0 0 17 13" fill="none" xmlns="http://www.w3.org/2000/svg">
<path d="M5.94017 1.07611C5.00971 1.27345 4.29939 1.49334 3.42176 1.85136C3.27793 1.91056 3.25445 1.93593 3.05192 2.24321C2.0833 3.71476 1.45517 5.2286 1.17045 6.78191C1.02369 7.59098 0.997275 7.94336 1.00021 8.94131C1.00315 9.45156 1.01489 9.94208 1.02956 10.0267L1.05304 10.1789L1.43462 10.4298C2.38856 11.0528 3.38067 11.532 4.41973 11.8731C4.634 11.9436 4.82479 11.9944 4.8424 11.9887C4.91578 11.9605 5.64665 10.8414 5.64665 10.7568C5.64665 10.7455 5.57033 10.7089 5.47934 10.675C5.24746 10.5876 4.49605 10.2296 4.44615 10.1817C4.39625 10.1338 4.40799 10.1169 4.56649 10.0069L4.69271 9.91953L4.98623 10.0407C6.53602 10.675 8.30595 10.8808 9.94673 10.6158C10.7011 10.4946 11.3879 10.2945 12.1951 9.96181C12.2978 9.91953 12.3008 9.91953 12.4299 10.0182C12.5004 10.0718 12.5591 10.131 12.5591 10.1479C12.5591 10.1873 11.9456 10.4974 11.6198 10.6215C11.4907 10.6722 11.3732 10.723 11.3586 10.7342C11.2999 10.785 12.0601 11.9972 12.1511 12C12.1716 12 12.3419 11.9493 12.5327 11.8844C13.6157 11.5264 14.5932 11.0556 15.553 10.4298L15.9346 10.1789L15.9551 10.0267C15.9639 9.94208 15.9815 9.57842 15.9933 9.22322C16.0755 6.7368 15.4062 4.47027 13.9327 2.24039L13.7155 1.91338L13.3134 1.75269C12.5708 1.45669 11.6022 1.17478 10.8889 1.04792L10.6248 1L10.5749 1.06766C10.5455 1.10149 10.4516 1.27627 10.3665 1.45387L10.2109 1.77242L10.0641 1.75551C9.98489 1.74705 9.79117 1.7245 9.63854 1.70477C9.27457 1.65966 7.74532 1.65966 7.36375 1.70477C7.20231 1.72168 7.00565 1.74423 6.92347 1.75551L6.77671 1.76961L6.58592 1.39467C6.36284 0.957714 6.401 0.977448 5.94017 1.07611ZM6.53895 5.72476C6.92347 5.90518 7.20231 6.25756 7.30798 6.6917C7.36668 6.9285 7.34907 7.32035 7.26689 7.54869C6.92934 8.51845 5.82276 8.81164 5.10363 8.12378C4.634 7.67273 4.51953 6.94259 4.82479 6.34213C4.9921 6.01794 5.26507 5.78114 5.61436 5.66556C5.7758 5.60917 5.84918 5.60072 6.06638 5.60917C6.28946 5.62045 6.35403 5.63455 6.53895 5.72476ZM11.5347 5.72758C12.0366 5.96438 12.3389 6.45771 12.3389 7.03844C12.3389 7.4613 12.201 7.81087 11.9221 8.09559C11.159 8.88211 9.92619 8.47053 9.67963 7.34854C9.55048 6.75935 9.81758 6.10251 10.3136 5.79805C10.5543 5.64864 10.7569 5.5979 11.0562 5.61199C11.2823 5.62045 11.3439 5.63455 11.5347 5.72758Z" stroke="black"/>
</svg>
