<svg width="29" height="28" viewBox="0 0 29 28" fill="none" xmlns="http://www.w3.org/2000/svg">
<path fill-rule="evenodd" clip-rule="evenodd" d="M14.249 0C6.36968 0 0 6.41664 0 14.3549C0 20.7004 4.08127 26.0717 9.74308 27.9728C10.451 28.1157 10.7102 27.6639 10.7102 27.2838C10.7102 26.9511 10.6869 25.8104 10.6869 24.6218C6.72318 25.4776 5.89777 22.9106 5.89777 22.9106C5.26077 21.247 4.31694 20.8194 4.31694 20.8194C3.01961 19.94 4.41144 19.94 4.41144 19.94C5.85052 20.0351 6.60564 21.4135 6.60564 21.4135C7.87934 23.5998 9.93179 22.9821 10.7575 22.6017C10.8753 21.6748 11.253 21.0332 11.6541 20.6767C8.49272 20.344 5.16656 19.1082 5.16656 13.5942C5.16656 12.0257 5.73239 10.7423 6.62897 9.74425C6.48752 9.38784 5.99198 7.91405 6.77072 5.94152C6.77072 5.94152 7.97384 5.56119 10.6866 7.41501C11.8481 7.10079 13.0458 6.94094 14.249 6.9396C15.4521 6.9396 16.6786 7.10614 17.8111 7.41501C20.5242 5.56119 21.7273 5.94152 21.7273 5.94152C22.5061 7.91405 22.0102 9.38784 21.8688 9.74425C22.789 10.7423 23.3315 12.0257 23.3315 13.5942C23.3315 19.1082 20.0053 20.32 16.8203 20.6767C17.3395 21.1282 17.7875 21.9837 17.7875 23.3385C17.7875 25.2635 17.7642 26.8084 17.7642 27.2836C17.7642 27.6639 18.0238 28.1157 18.7313 27.9731C24.3931 26.0714 28.4744 20.7004 28.4744 14.3549C28.4978 6.41664 22.1047 0 14.249 0Z" fill="#24292F"/>
</svg>
