<svg width="14" height="17" viewBox="0 0 14 17" fill="none" xmlns="http://www.w3.org/2000/svg">
<path d="M6.05513 0.00948685C4.81856 0.156893 3.94641 0.410759 3.16843 0.852977C1.41184 1.84797 0.339052 3.50629 0.0524292 5.65596C-0.0376522 6.32747 -0.00898995 7.50672 0.117943 8.211C0.445512 10.0822 1.38318 11.9371 2.89818 13.7428C3.59017 14.5658 4.96187 15.8802 5.55559 16.2897C5.87087 16.5067 6.20254 16.6172 6.6079 16.6418C7.04603 16.6623 7.35722 16.609 7.68479 16.4412C8.22937 16.1709 9.77713 14.7296 10.6411 13.6978C12.5615 11.3966 13.5073 9.08724 13.5073 6.70008C13.5073 3.14187 11.3658 0.574543 7.9796 0.070906C7.66022 0.0217707 6.3049 -0.0191754 6.05513 0.00948685ZM7.93865 1.39347C10.1538 1.79064 11.5992 3.17462 12.0783 5.36115C12.1848 5.8525 12.2298 6.98261 12.1602 7.54767C11.9473 9.25512 11.1734 10.9462 9.83855 12.6168C9.17522 13.4439 7.53329 15.0367 7.10745 15.266C6.93547 15.3602 6.56696 15.3602 6.39908 15.266C5.96505 15.0326 4.3272 13.4398 3.66388 12.6168C2.32903 10.9462 1.55515 9.25922 1.34223 7.54767C1.27262 6.98261 1.31766 5.8525 1.42412 5.36115C1.93186 3.05588 3.53285 1.62686 5.93229 1.33614C6.36223 1.28701 7.521 1.31976 7.93865 1.39347Z" fill="black"/>
<path d="M6.03463 3.11324C4.75302 3.41624 3.80307 4.2843 3.41408 5.51268C3.27077 5.95899 3.22982 6.76154 3.324 7.21195C3.4755 7.91622 3.78259 8.48537 4.29032 8.9972C5.02326 9.72604 5.83809 10.0413 6.8945 10.0045C7.35719 9.99219 7.48003 9.97171 7.81579 9.85707C8.38494 9.66462 8.75755 9.43941 9.16701 9.03405C9.89585 8.31749 10.2316 7.53133 10.2316 6.53633C10.2316 6.04089 10.1661 5.70513 9.99002 5.24653C9.81396 4.78794 9.57647 4.44399 9.16701 4.03862C8.75755 3.63326 8.38494 3.40805 7.81579 3.2156C7.46365 3.09686 7.36947 3.08048 6.85355 3.07229C6.46047 3.06001 6.20251 3.07639 6.03463 3.11324ZM7.30396 4.42761C8.04508 4.62006 8.66746 5.24244 8.85991 5.98356C9.05236 6.72469 8.83125 7.52723 8.28667 8.07181C7.60287 8.75561 6.57102 8.90712 5.71115 8.44852C5.21571 8.18646 4.78577 7.64188 4.64246 7.08911C4.56466 6.77792 4.56466 6.29475 4.64246 5.98356C4.83491 5.25472 5.45319 4.62825 6.18204 4.4317C6.47685 4.35391 7.00505 4.34981 7.30396 4.42761Z" fill="black"/>
</svg>
