<svg width="72" height="29" viewBox="0 0 72 29" fill="none" xmlns="http://www.w3.org/2000/svg">
<path d="M37.1722 10.3359L40.5977 10.1145C40.6758 10.6746 40.8191 11.0913 41.0535 11.3909C41.4313 11.8598 41.9522 12.0942 42.6425 12.0942C43.1505 12.0942 43.5543 11.977 43.8278 11.7295C44.0883 11.5342 44.2446 11.2216 44.2446 10.896C44.2446 10.5834 44.1013 10.2838 43.8538 10.0884C43.5933 9.854 42.9812 9.61956 42.0174 9.41117C40.4414 9.0595 39.3083 8.59062 38.644 7.99148C37.9797 7.43143 37.602 6.61088 37.6281 5.73823C37.6281 5.1391 37.8104 4.53996 38.1491 4.04503C38.5398 3.48497 39.0738 3.04213 39.712 2.79467C40.4023 2.4951 41.3661 2.33881 42.5774 2.33881C44.0622 2.33881 45.1954 2.61232 45.9768 3.17238C46.7583 3.71941 47.2272 4.60509 47.3705 5.81638L43.9841 6.01174C43.8929 5.49076 43.7106 5.11305 43.411 4.86558C43.1114 4.61811 42.7207 4.50089 42.2127 4.50089C41.796 4.50089 41.4834 4.59206 41.275 4.76138C41.0796 4.91768 40.9494 5.15212 40.9624 5.41261C40.9624 5.60798 41.0666 5.79033 41.2229 5.90755C41.3922 6.06384 41.7959 6.20711 42.4342 6.33736C44.0101 6.676 45.1302 7.01464 45.8206 7.3663C46.5109 7.71797 47.0058 8.14778 47.3054 8.65574C47.6179 9.17672 47.7742 9.77585 47.7612 10.388C47.7612 11.1174 47.5528 11.8468 47.136 12.4589C46.7062 13.0971 46.1071 13.5921 45.4038 13.8916C44.6614 14.2172 43.7236 14.3866 42.6035 14.3866C40.6237 14.3866 39.2562 14.0088 38.4877 13.2404C37.7192 12.4719 37.2634 11.5081 37.1722 10.3359ZM0.82055 14.1912V2.5472H6.82489C7.93198 2.5472 8.79161 2.63837 9.37771 2.83374C9.9508 3.01609 10.4588 3.3938 10.7974 3.90176C11.1751 4.46182 11.3575 5.11305 11.3444 5.79033C11.3835 6.93649 10.7974 8.03056 9.7945 8.60364C9.40376 8.82506 8.97395 8.98135 8.53111 9.0595C8.85673 9.15067 9.18234 9.30697 9.46889 9.48931C9.6903 9.67166 9.87265 9.88005 10.042 10.1015C10.2373 10.3229 10.4067 10.5704 10.5499 10.8308L12.2952 14.2042H8.2055L6.27786 10.6225C6.03039 10.1666 5.822 9.86703 5.62663 9.72376C5.36614 9.54141 5.05355 9.45024 4.74096 9.45024H4.42836V14.1782H0.82055V14.1912ZM4.42836 7.26211H5.95224C6.27786 7.23606 6.59045 7.18396 6.90304 7.10581C7.13748 7.06674 7.34588 6.93649 7.48915 6.74112C7.84081 6.27224 7.78871 5.60798 7.3589 5.20422C7.12446 5.00885 6.6686 4.90465 6.01737 4.90465H4.42836V7.26211ZM0 24.168L3.42547 23.9466C3.50362 24.5067 3.64689 24.9235 3.88133 25.223C4.24602 25.6919 4.78003 25.9394 5.47033 25.9394C5.97829 25.9394 6.38206 25.8222 6.65557 25.5747C6.91606 25.3663 7.07236 25.0667 7.07236 24.7411C7.07236 24.4285 6.92909 24.129 6.68162 23.9336C6.42113 23.6992 5.80897 23.4647 4.83213 23.2563C3.25615 22.9047 2.12301 22.4358 1.45876 21.8366C0.794501 21.2766 0.416787 20.456 0.442837 19.5834C0.442837 18.9842 0.625181 18.3851 0.963821 17.8902C1.35456 17.3301 1.88857 16.8873 2.52677 16.6398C3.21708 16.3403 4.1809 16.184 5.39219 16.184C6.87699 16.184 8.01013 16.4575 8.79161 17.0175C9.57308 17.5776 10.0289 18.4502 10.1722 19.6615L6.78582 19.8569C6.69465 19.3359 6.5123 18.9582 6.21274 18.7107C5.92619 18.4633 5.52243 18.346 5.01447 18.3591C4.59768 18.3591 4.28509 18.4502 4.0767 18.6326C3.86831 18.7889 3.75109 19.0233 3.76411 19.2838C3.76411 19.4792 3.86831 19.6615 4.0246 19.7787C4.19392 19.935 4.59768 20.0783 5.23589 20.2086C6.81187 20.5472 7.93198 20.8858 8.62229 21.2375C9.31259 21.5892 9.80753 22.019 10.1071 22.5269C10.4197 23.0479 10.576 23.6471 10.576 24.2462C10.576 24.9756 10.3546 25.6919 9.9508 26.3041C9.52098 26.9423 8.92185 27.4372 8.21852 27.7368C7.47612 28.0624 6.53835 28.2317 5.41823 28.2317C3.43849 28.2317 2.07091 27.854 1.30246 27.0856C0.534009 26.3041 0.104197 25.3403 0 24.168Z" fill="black"/>
<path d="M17.3227 23.2563L20.4747 24.2071C20.3054 25.0016 19.9537 25.757 19.4718 26.4213C19.029 27.0074 18.4428 27.4633 17.7786 27.7628C17.1013 28.0624 16.2417 28.2187 15.1997 28.2187C13.9363 28.2187 12.8944 28.0363 12.0999 27.6717C11.2923 27.307 10.602 26.6557 10.0159 25.731C9.42982 24.8062 9.14328 23.621 9.14328 22.1753C9.14328 20.2476 9.65124 18.7628 10.6802 17.7339C11.7091 16.7049 13.1549 16.184 15.0304 16.184C16.5022 16.184 17.6483 16.4835 18.4949 17.0696C19.3285 17.6688 19.9537 18.5805 20.3705 19.8048L17.1925 20.5081C17.1143 20.2346 16.9971 19.9611 16.8408 19.7267C16.6455 19.4531 16.398 19.2447 16.0984 19.0884C15.7989 18.9322 15.4602 18.867 15.1216 18.867C14.301 18.867 13.6758 19.1926 13.246 19.8569C12.9204 20.3388 12.7511 21.1073 12.7511 22.1492C12.7511 23.4387 12.9465 24.3243 13.3372 24.8062C13.7279 25.2882 14.275 25.5226 14.9913 25.5226C15.6816 25.5226 16.2026 25.3272 16.5543 24.9495C16.9059 24.5458 17.1664 23.9857 17.3227 23.2563ZM24.6816 16.3793H28.2764V20.456H32.2099V16.3793H35.8307V28.0233H32.2099V23.3084H28.2764V28.0233H24.6816V16.3793Z" fill="black"/>
<path d="M35.3358 22.2013C35.3358 20.2997 35.8698 18.8149 36.9248 17.7599C37.9798 16.7049 39.4646 16.1709 41.3531 16.1709C43.2938 16.1709 44.7786 16.6919 45.8336 17.7339C46.8886 18.7758 47.4096 20.2346 47.4096 22.1101C47.4096 23.4777 47.1751 24.5848 46.7193 25.4574C46.2764 26.3171 45.5861 27.0204 44.7395 27.4893C43.8669 27.9712 42.7858 28.2187 41.4964 28.2187C40.1809 28.2187 39.0999 28.0103 38.2402 27.5935C37.3546 27.1506 36.6252 26.4603 36.1433 25.6137C35.6093 24.702 35.3358 23.5689 35.3358 22.2013ZM38.9305 22.2143C38.9305 23.3865 39.152 24.2331 39.5818 24.7541C40.0116 25.2621 40.6107 25.5226 41.3661 25.5226C42.1346 25.5226 42.7337 25.2751 43.1635 24.7671C43.5934 24.2592 43.8017 23.3605 43.8017 22.058C43.8017 20.964 43.5803 20.1564 43.1375 19.6615C42.6947 19.1535 42.0955 18.9061 41.3401 18.9061C40.6758 18.88 40.0376 19.1666 39.5948 19.6745C39.152 20.1825 38.9305 21.0291 38.9305 22.2143ZM51.0955 22.2013C51.0955 20.2997 51.6295 18.8149 52.6845 17.7599C53.7395 16.7049 55.2243 16.1709 57.1129 16.1709C59.0536 16.1709 60.5514 16.6919 61.5934 17.7339C62.6353 18.7758 63.1693 20.2346 63.1693 22.1101C63.1693 23.4777 62.9349 24.5848 62.479 25.4574C62.0362 26.3171 61.3459 27.0204 60.4993 27.4893C59.6266 27.9712 58.5456 28.2187 57.2562 28.2187C55.9407 28.2187 54.8596 28.0103 54 27.5935C53.1143 27.1506 52.385 26.4603 51.9031 25.6137C51.369 24.702 51.0955 23.5689 51.0955 22.2013ZM54.6903 22.2143C54.6903 23.3865 54.9117 24.2331 55.3415 24.7541C55.7714 25.2621 56.3705 25.5226 57.1259 25.5226C57.8944 25.5226 58.4935 25.2751 58.9233 24.7671C59.3531 24.2592 59.5615 23.3605 59.5615 22.058C59.5615 20.964 59.3401 20.1564 58.8973 19.6615C58.4544 19.1535 57.8553 18.9061 57.0999 18.9061C56.4356 18.88 55.7844 19.1666 55.3546 19.6745C54.9117 20.1825 54.6903 21.0291 54.6903 22.2143Z" fill="black"/>
<path d="M62.7916 16.3793H66.3864V25.1579H72V28.0233H62.7786V16.3793H62.7916Z" fill="black"/>
<path d="M58.8255 15.714C62.4446 12.9868 63.5606 8.36365 61.3182 5.38797C59.0758 2.41229 54.3242 2.21087 50.7051 4.93809C47.086 7.66531 45.97 12.2884 48.2124 15.2641C50.4548 18.2398 55.2064 18.4412 58.8255 15.714Z" fill="white"/>
<path d="M53.3357 17.8902C51.1997 17.8902 49.233 17.0566 48.0087 15.4155C45.6773 12.3287 46.8234 7.53564 50.5485 4.72233C54.2735 1.90902 59.1968 2.14346 61.5282 5.21727C62.6614 6.71509 63.013 8.66879 62.5311 10.6876C62.0492 12.6934 60.7858 14.5429 58.9884 15.9105C57.2431 17.239 55.2243 17.8902 53.3357 17.8902ZM56.2012 3.2766C54.4298 3.2766 52.5282 3.88876 50.8611 5.13912C47.3575 7.77009 46.2634 12.2506 48.4255 15.1029C50.5745 17.9553 55.1722 18.1377 58.6758 15.5067C60.3821 14.2303 61.5673 12.472 62.0232 10.5834C62.479 8.70786 62.1534 6.92349 61.1114 5.54288C59.9783 4.03203 58.1679 3.2766 56.2012 3.2766Z" fill="black"/>
<path d="M51.1085 9.46325L52.411 8.55153L54.013 10.8308C54.2866 11.1955 54.4949 11.5863 54.6512 12.0161C54.7424 12.3417 54.7164 12.6934 54.5861 13.0059C54.4168 13.3967 54.1433 13.7223 53.7786 13.9567C53.3488 14.2563 52.9841 14.4256 52.6715 14.4777C52.3719 14.5298 52.0593 14.4777 51.7728 14.3475C51.4602 14.1912 51.1867 13.9698 50.9783 13.6832L52.0984 12.6413C52.1896 12.7845 52.3068 12.9148 52.4371 13.019C52.5282 13.0841 52.6324 13.1232 52.7496 13.1232C52.8408 13.1232 52.932 13.0841 52.9971 13.032C53.1274 12.9538 53.2185 12.7976 53.2055 12.6413C53.1664 12.4198 53.0753 12.1984 52.932 12.0291L51.1085 9.46325ZM55.0159 10.909L56.2012 9.97121C56.3314 10.1275 56.5007 10.2447 56.6831 10.3099C56.9436 10.388 57.2171 10.3359 57.4385 10.1666C57.5948 10.0624 57.725 9.91911 57.7771 9.73677C57.8553 9.50233 57.725 9.24183 57.4906 9.16369C57.4515 9.15066 57.4125 9.13764 57.3734 9.13764C57.2171 9.12461 56.9436 9.18974 56.5398 9.35906C55.8756 9.63257 55.3546 9.73677 54.9638 9.6977C54.5861 9.65862 54.2345 9.46325 54.0261 9.13764C53.8698 8.91622 53.7916 8.65573 53.7786 8.39524C53.7786 8.09567 53.8567 7.7961 54.0261 7.54864C54.2735 7.19697 54.5731 6.89741 54.9378 6.66296C55.4848 6.28525 55.9667 6.10291 56.3835 6.10291C56.8003 6.10291 57.191 6.29827 57.5557 6.70204L56.3835 7.62678C56.1491 7.32722 55.7062 7.26209 55.4067 7.49654L55.3676 7.53561C55.2373 7.61376 55.1462 7.73098 55.0941 7.87425C55.055 7.97845 55.0811 8.09567 55.1462 8.18684C55.1983 8.25196 55.2764 8.30406 55.3676 8.30406C55.4718 8.31709 55.6541 8.26499 55.9146 8.14777C56.5659 7.87425 57.0608 7.71796 57.3994 7.66586C57.686 7.61376 57.9855 7.63981 58.2591 7.75703C58.5065 7.86123 58.7149 8.04357 58.8582 8.26499C59.0405 8.52548 59.1447 8.83807 59.1578 9.16369C59.1708 9.50233 59.0796 9.82794 58.8973 10.1145C58.6628 10.4661 58.3633 10.7657 58.0116 11.0002C57.2952 11.4951 56.7091 11.7035 56.2402 11.6253C55.7323 11.5472 55.3155 11.2867 55.0159 10.909Z" fill="black"/>
</svg>
