<svg width="50" height="50" viewBox="0 0 15 14" fill="none" xmlns="http://www.w3.org/2000/svg">
<path d="M14.246 0.0245083C13.9937 0.107149 0.336222 5.80019 0.248223 5.8614C0.0604904 5.9869 -0.0421756 6.27767 0.0164907 6.50723C0.0546238 6.6572 0.180756 6.83167 0.298089 6.89594C0.347955 6.92349 1.19568 7.26936 2.18714 7.6642C3.1786 8.05904 3.99407 8.38654 3.99993 8.39266C4.0058 8.39878 4.24046 9.31702 4.52206 10.4311C4.80366 11.5453 5.05006 12.4849 5.06766 12.5247C5.21139 12.8185 5.58099 12.9502 5.85672 12.8063C5.89779 12.7849 6.39059 12.4206 6.95085 11.9983L7.97458 11.2331L8.24151 11.4259C9.17723 12.0993 11.7322 13.8959 11.8143 13.9418C11.8788 13.9786 11.9786 13.9969 12.0959 14C12.2484 14 12.2953 13.9878 12.4039 13.9082C12.4801 13.8531 12.5564 13.7613 12.5945 13.6786C12.6825 13.495 15.0204 0.713182 14.9999 0.541779C14.9529 0.174486 14.5775 -0.0826188 14.246 0.0245083ZM11.606 2.58025C11.5004 2.68738 10.1746 4.01576 8.65804 5.53696C5.44899 8.74771 5.46072 8.73853 5.43139 8.8732C5.41966 8.92524 5.40206 8.95891 5.39032 8.9436C5.37859 8.93136 5.29646 8.63752 5.21139 8.29472C5.04419 7.63665 4.97673 7.48361 4.80659 7.39179C4.75966 7.3673 4.18473 7.13162 3.52474 6.8684C2.86474 6.60517 2.30741 6.37867 2.28394 6.36643C2.25461 6.34807 3.09647 5.9869 4.86233 5.25231C6.30552 4.6524 8.44097 3.76477 9.61137 3.27505C10.7818 2.78839 11.7498 2.38743 11.7674 2.38743C11.782 2.38436 11.7116 2.47313 11.606 2.58025ZM13.4481 2.58944C13.4335 2.67208 13.0287 4.88808 12.5476 7.52034C12.0666 10.1495 11.6676 12.3105 11.6588 12.3166C11.6383 12.3411 6.94205 9.01706 6.95085 8.98951C6.95965 8.95891 13.4335 2.44864 13.4569 2.44864C13.4657 2.44558 13.4628 2.50986 13.4481 2.58944ZM6.27912 10.0363C6.62525 10.2812 6.90978 10.4862 6.90978 10.4954C6.90978 10.523 5.97112 11.2055 5.95645 11.1902C5.94765 11.181 5.84792 10.8107 5.73646 10.3669C5.62499 9.92611 5.52526 9.53433 5.51352 9.50066C5.49886 9.44557 5.50472 9.44863 5.57219 9.51597C5.61326 9.55882 5.93005 9.79144 6.27912 10.0363Z" fill="black"/>
</svg>
